<svg xmlns="http://www.w3.org/2000/svg" viewBox="0 0 64 64" width="64" height="64"><title>accessibility</title><g class="nc-icon-wrapper" stroke-linecap="square" stroke-linejoin="miter" stroke-width="3" transform="translate(0.5 0.5)" fill="#111111" stroke="#111111"><circle data-color="color-2" fill="none" stroke-miterlimit="10" cx="32" cy="8" r="6"/> <path fill="none" stroke="#111111" stroke-miterlimit="10" d="M56.846,20H32H7.154 c-1.589,0-3.016,1.167-3.144,2.751c-0.136,1.677,1.111,3.076,2.72,3.222L23,28l0,30.846c0,1.588,1.166,3.015,2.749,3.144 c1.676,0.136,3.076-1.109,3.223-2.716l1.904-15.281C30.947,43.425,31.429,43,32,43h0c0.571,0,1.053,0.425,1.124,0.992l1.904,15.281 c0.148,1.607,1.547,2.852,3.223,2.716C39.834,61.861,41,60.434,41,58.846V28l16.27-2.027c1.609-0.146,2.856-1.545,2.72-3.222 C59.862,21.167,58.434,20,56.846,20z"/></g></svg>